<svg id="Layer_1" data-name="Layer 1" xmlns="http://www.w3.org/2000/svg" viewBox="0 0 37.6 37.6"><defs><style>.cls-1{fill:none;}</style></defs><title>brdArtboard 37</title><path class="cls-1" d="M18.75,26a7.17,7.17,0,1,0-3.54-13.4L16.59,15a4.4,4.4,0,0,1,2.21-.61,4.45,4.45,0,1,1-4.45,4.45H11.58A7.17,7.17,0,0,0,18.75,26Z"/><path class="cls-1" d="M18.75,8.09A10.71,10.71,0,1,1,8,18.8H6.21a12.61,12.61,0,1,0,6.3-10.89l.92,1.6A10.65,10.65,0,0,1,18.75,8.09Z"/><path d="M18.8,23.25a4.45,4.45,0,0,0,0-8.89,4.4,4.4,0,0,0-2.21.61L18.8,18.8H14.35A4.45,4.45,0,0,0,18.8,23.25Z"/><path d="M18.75,8.09a10.71,10.71,0,1,0,5.31,20L22.29,25a7.17,7.17,0,1,1,3.63-6.23h3.54A10.71,10.71,0,0,0,18.75,8.09Z"/><path d="M37.6,18.8a18.69,18.69,0,0,0-2.53-9.39l-5.38,3.1A12.58,12.58,0,1,1,18.8,6.21V0A18.8,18.8,0,1,0,37.6,18.8Z"/></svg>