<svg id="Layer_1" data-name="Layer 1" xmlns="http://www.w3.org/2000/svg" viewBox="0 0 77.05 77.05"><title>brdArtboard 48</title><path d="M64.3,38.53,53.66,44.35,70,60.71a38.49,38.49,0,0,0-.36-44.87L53.1,32.4Z"/><path d="M38.53,64.3,32.4,53.1,15.84,69.66A38.49,38.49,0,0,0,61,69.83L44.51,53.37Z"/><path d="M38.53,12.75,44.2,23.13,60.47,6.86A38.49,38.49,0,0,0,16.34,7L32.7,23.4Z"/><path d="M12.75,38.53l10.93-6L7.22,16.09a38.49,38.49,0,0,0-.36,44.38L23.13,44.2Z"/><polygon points="29.41 29.41 32.7 23.4 16.34 7.04 10.33 1.02 1.24 10.11 7.22 16.09 23.68 32.55 29.41 29.41"/><polygon points="53.66 44.35 47.64 47.64 44.51 53.37 60.97 69.83 65.89 74.75 74.97 65.67 70.02 60.71 53.66 44.35"/><polygon points="47.64 29.41 53.1 32.4 69.66 15.84 75.39 10.11 66.31 1.02 60.47 6.86 44.2 23.13 47.64 29.41"/><polygon points="29.41 47.64 23.13 44.2 6.86 60.47 1.66 65.67 10.75 74.75 15.84 69.66 32.4 53.1 29.41 47.64"/></svg>