<svg id="Layer_1" data-name="Layer 1" xmlns="http://www.w3.org/2000/svg" viewBox="0 0 60.02 60.02"><title>brdArtboard 44</title><polygon points="13.36 6.32 15.39 0 15.37 6.64 19.25 1.25 17.17 7.56 22.53 3.64 18.61 9 24.91 6.92 19.53 10.8 26.17 10.78 19.84 12.8 26.17 14.83 19.53 14.81 24.91 18.69 18.61 16.61 22.53 21.97 17.17 18.05 19.25 24.36 15.37 18.97 15.39 25.61 13.36 19.29 11.33 25.61 11.36 18.97 7.48 24.36 9.55 18.05 4.2 21.97 8.12 16.61 1.81 18.69 7.2 14.81 0.56 14.83 6.88 12.8 0.56 10.78 7.2 10.8 1.81 6.92 8.12 9 4.2 3.64 9.55 7.56 7.48 1.25 11.36 6.64 11.33 0 13.36 6.32"/><rect x="25.76" y="6.69" width="4.37" height="43.81" transform="translate(-12.03 28.13) rotate(-45)"/><polygon points="46.66 40.67 49.74 34.6 49.66 41.41 55.21 37.47 51.97 43.46 58.72 42.55 53.06 46.34 59.46 48.67 52.69 49.41 57.27 54.45 50.94 51.95 52.65 58.54 48.2 53.38 46.66 60.02 45.12 53.38 40.66 58.54 42.38 51.95 36.04 54.45 40.63 49.41 33.85 48.67 40.26 46.34 34.6 42.55 41.35 43.46 38.1 37.47 43.66 41.41 43.57 34.6 46.66 40.67"/></svg>